<svg xmlns="http://www.w3.org/2000/svg" version="1.1" xmlns:xlink="http://www.w3.org/1999/xlink" xmlns:svgjs="http://svgjs.dev/svgjs" width="1500" height="534" viewBox="0 0 1500 534"><g transform="matrix(1,0,0,1,-0.9077657380865958,-1.3203165608429686)"><svg viewBox="0 0 396 141" data-background-color="#efefef" preserveAspectRatio="xMidYMid meet" height="534" width="1500" xmlns="http://www.w3.org/2000/svg" xmlns:xlink="http://www.w3.org/1999/xlink"><g id="tight-bounds" transform="matrix(1,0,0,1,0.2396501548548713,0.34862291213269714)"><svg viewBox="0 0 395.52 140.30243971057962" height="140.30243971057962" width="395.52"><g><svg viewBox="0 0 395.52 140.30243971057962" height="140.30243971057962" width="395.52"><g transform="matrix(1,0,0,1,0,72.16204874920537)"><svg viewBox="0 0 395.52 68.14039096137427" height="68.14039096137427" width="395.52"><g id="textblocktransform"><svg viewBox="0 0 395.52 68.14039096137427" height="68.14039096137427" width="395.52" id="textblock"><g><svg viewBox="0 0 395.52 68.14039096137427" height="68.14039096137427" width="395.52"><g transform="matrix(1,0,0,1,0,0)"><svg width="395.52" viewBox="-2.7494633715385657 -17.99098 237.4170433715386 40.90230953634979" height="68.14039096137427" data-palette-color="#d94e28"><path d="M15.387-15.109l3.85 0.738 0.24-1.257-12.335-2.363-0.241 1.257 4.341 0.832-3.802 19.849c-0.757 3.955-1.707 6.22-2.849 6.795v0c-0.436 0.188-0.897 0.235-1.381 0.143v0c-0.864-0.166-1.348-0.774-1.453-1.826v0c-0.138-1.194-0.25-1.901-0.337-2.121v0c-0.288-0.585-0.819-0.951-1.591-1.099v0c-0.995-0.191-1.742 0.148-2.242 1.016v0c-0.147 0.237-0.243 0.469-0.286 0.699v0c-0.246 1.283 0.408 2.389 1.961 3.318v0c0.842 0.494 1.81 0.846 2.903 1.055v0c2.763 0.529 5.061-0.161 6.893-2.07v0c1.297-1.387 2.171-3.253 2.619-5.598v0zM35.885-13.123l-13.539-2.029-0.189 1.266 3.886 0.583-3.983 26.583-3.886-0.582-0.19 1.265 13.401 2.008c4.365 0.654 8.158-0.166 11.38-2.461v0c3.184-2.267 5.099-5.552 5.744-9.858v0c0.834-5.565-0.593-9.948-4.279-13.149v0c-2.26-1.923-5.042-3.132-8.345-3.626zM30.217-12.678l5.34 0.8c5.11 0.766 7.945 3.57 8.507 8.413v0c0.231 1.787 0.17 3.861-0.184 6.222v0c-1.207 8.057-4.623 12.095-10.248 12.115v0c-0.634-0.001-1.273-0.049-1.919-0.146v0l-5.479-0.821zM64.793 16.623l-11.025-1.104c0.095-0.949 1.388-2.052 3.879-3.31v0c0.451-0.223 1.16-0.581 2.128-1.073v0c3.867-1.817 6.541-3.392 8.02-4.724v0c1.837-1.618 2.852-3.389 3.045-5.313v0c0.303-3.025-1.001-5.259-3.911-6.704v0c-1.291-0.625-2.765-1.021-4.424-1.186v0c-2.992-0.3-5.43 0.263-7.315 1.689v0c-1.285 0.99-2.002 2.232-2.152 3.724v0c-0.134 1.34 0.27 2.221 1.213 2.644v0c0.226 0.083 0.435 0.134 0.628 0.153v0c1.267 0.127 2.115-0.445 2.543-1.715v0c0.092-0.319 0.204-0.8 0.336-1.443v0c0.375-1.738 0.915-2.85 1.62-3.336v0c0.633-0.432 1.487-0.595 2.562-0.487v0c2.899 0.29 4.49 1.797 4.773 4.519v0c0.047 0.534 0.041 1.093-0.017 1.676v0c-0.303 3.025-1.949 5.507-4.937 7.445v0c-0.314 0.196-1.881 1.058-4.701 2.585v0c-2.641 1.417-4.365 2.873-5.171 4.366v0c-0.447 0.846-0.717 1.741-0.811 2.682v0l-0.098 0.975 18.607 1.865 0.911-8.19-0.926-0.093-1.04 2.559c-0.472 1.098-1.177 1.718-2.116 1.858v0c-0.391 0.028-0.932 0.007-1.621-0.062zM74.822 20.887l12.004 0.629 0.067-1.279-3.865-0.202 0.639-12.193 4.654 0.243 7.133 13.883 7.4 0.387c0.038-0.719-0.137-1.139-0.525-1.259v0c-0.158-0.042-0.354-0.069-0.586-0.081v0l-1.858-0.097-7.227-13.056c3.141-0.583 5.35-2.086 6.625-4.51v0c0.471-0.957 0.733-1.944 0.786-2.963v0c0.128-2.45-0.831-4.463-2.878-6.038v0c-1.669-1.269-3.775-1.97-6.319-2.104v0l-14.51-0.76-0.067 1.278 3.925 0.206-1.406 26.843-3.925-0.205zM84.434-6.808l4.894 0.256c2.809 0.147 4.694 1.391 5.652 3.731v0c0.377 0.968 0.537 1.974 0.483 3.019v0c-0.123 2.357-1.035 4.145-2.734 5.365v0c-1.158 0.821-2.472 1.192-3.944 1.115v0l-5.043-0.264zM115.699 2.301v0c2.287 0.019 3.798 0.998 4.535 2.938v0c0.255 0.622 0.379 1.293 0.373 2.013v0c-0.014 1.633-0.805 2.623-2.375 2.971v0c-0.821 0.16-1.985 0.217-3.491 0.17v0l-5.199-0.193c0.198-3.758 1.445-6.201 3.742-7.329v0c0.757-0.387 1.562-0.577 2.415-0.57zM124.109 17.782v0l-1.226-0.45c-1.167 2.477-3.029 3.868-5.585 4.173v0c-0.327 0.031-0.637 0.045-0.93 0.042v0c-3.433-0.029-5.573-2.093-6.419-6.193v0c-0.257-1.142-0.397-2.4-0.418-3.774v0l5.889 0.139c3.993 0.1 6.566-0.255 7.719-1.065v0c0.885-0.646 1.333-1.572 1.343-2.779v0c0.019-2.227-1.097-4.003-3.345-5.328v0c-1.592-0.96-3.435-1.449-5.528-1.467v0c-4.087-0.034-7.027 1.641-8.822 5.027v0c-0.935 1.759-1.411 3.748-1.43 5.968v0c-0.034 4.06 1.398 7.082 4.294 9.066v0c1.724 1.161 3.699 1.751 5.925 1.77v0c3.533 0.03 6.144-1.225 7.832-3.765v0c0.264-0.451 0.498-0.906 0.701-1.364zM135.744 21.347v0c2.259-0.062 3.763-0.79 4.512-2.185v0c0.28-0.501 0.411-1.045 0.395-1.631v0c-0.038-1.379-1.07-2.532-3.096-3.456v0c-0.426-0.215-1.138-0.522-2.137-0.922v0c-2.71-1.039-4.518-2.037-5.424-2.992v0c-0.983-1.053-1.494-2.3-1.533-3.739v0c-0.062-2.252 1.137-3.873 3.598-4.861v0c1.135-0.451 2.372-0.695 3.711-0.732v0c2.159-0.059 4.038 0.346 5.635 1.215v0c-0.026-0.946 0.186-1.492 0.636-1.638v0c0.199-0.039 0.412-0.061 0.638-0.068v0l0.168 6.128-1.279 0.035c-0.143-3.004-1.85-4.477-5.124-4.421v0c-2.452 0.067-3.952 0.829-4.498 2.285v0c-0.156 0.398-0.228 0.81-0.217 1.236v0c0.039 1.406 1.084 2.571 3.138 3.496v0c0.466 0.214 1.194 0.504 2.185 0.87v0c2.682 1.007 4.476 1.988 5.382 2.943v0c0.975 1.02 1.482 2.25 1.522 3.689v0c0.073 2.652-1.285 4.457-4.072 5.414v0c-1.063 0.389-2.234 0.602-3.514 0.637v0c-2.353 0.031-4.412-0.502-6.176-1.6v0c0.023 0.853-0.176 1.352-0.599 1.497v0c-0.192 0.039-0.422 0.062-0.689 0.069v0l-0.205-7.458 1.38-0.038c0.183 4.217 2.07 6.292 5.663 6.227zM171.633 18.799v0l-2.444 0.171-1.376-19.571-7.691 0.54 0.086 1.217 4.02-0.282 0.743 10.574c0.207 2.939-0.669 5.166-2.628 6.68v0c-0.874 0.683-1.8 1.059-2.778 1.128v0c-2.673 0.188-4.319-1.073-4.937-3.783v0c-0.099-0.454-0.166-0.941-0.203-1.46v0l-0.956-13.606-7.442 0.523 0.085 1.217 3.771-0.265 0.819 11.651c0.425 5.577 2.957 8.22 7.594 7.927v0c2.447-0.172 4.382-1.307 5.806-3.405v0c0.532-0.793 0.946-1.657 1.241-2.594v0l0.7 4.963 6.903-0.485c-0.05-0.718-0.324-1.093-0.821-1.125v0c-0.135-0.024-0.299-0.029-0.492-0.015zM185.652 17.1v0l-2.192 0.283-1.356-10.513c-0.268-2.863 0.45-5.113 2.155-6.751v0c0.789-0.761 1.62-1.197 2.493-1.31v0c1.627-0.21 2.862 0.535 3.706 2.235v0c0.358 0.747 0.6 1.606 0.726 2.578v0l1.243 9.64c0.193 1.494-0.049 2.433-0.726 2.816v0c-0.429 0.217-1.196 0.396-2.3 0.539v0l0.157 1.22 10.463-1.349c-0.092-0.714-0.387-1.073-0.884-1.076v0c-0.13-0.017-0.294-0.013-0.493 0.013v0l-2.192 0.283-1.556-12.07-0.05-0.387c0.217-2.434 1.158-4.236 2.822-5.406v0c0.639-0.412 1.266-0.657 1.881-0.736v0c1.653-0.213 2.931 0.496 3.834 2.127v0c0.428 0.765 0.709 1.666 0.843 2.705v0l1.243 9.64c0.193 1.494-0.049 2.433-0.726 2.816v0c-0.429 0.217-1.196 0.396-2.3 0.538v0l0.157 1.22 10.751-1.386c-0.092-0.714-0.384-1.073-0.875-1.077v0c-0.137-0.016-0.301-0.012-0.492 0.013v0l-2.49 0.321-1.556-12.07c-0.431-3.339-1.816-5.533-4.156-6.583v0c-1.054-0.456-2.146-0.611-3.276-0.465v0c-2.466 0.318-4.298 1.724-5.496 4.218v0c-0.315 0.632-0.56 1.289-0.734 1.97v0c-0.912-2.484-2.408-3.971-4.488-4.463v0c-0.611-0.15-1.224-0.185-1.838-0.106v0c-2.341 0.302-4.144 1.539-5.41 3.713v0c-0.463 0.786-0.801 1.636-1.012 2.55v0l-0.815-4.835-7.062 0.91 0.156 1.21 3.65-0.47 1.977 15.333c0.193 1.494-0.112 2.441-0.914 2.84v0c-0.469 0.222-1.255 0.404-2.36 0.546v0l0.158 1.22 10.711-1.381c-0.088-0.681-0.383-1.04-0.885-1.076v0c-0.163-0.013-0.327-0.008-0.492 0.013zM223.487-7.56v0c2.249-0.413 3.919 0.264 5.008 2.029v0c0.368 0.563 0.616 1.198 0.747 1.907v0c0.295 1.607-0.296 2.728-1.772 3.365v0c-0.776 0.312-1.909 0.587-3.397 0.827v0l-5.141 0.79c-0.515-3.728 0.249-6.363 2.291-7.903v0c0.67-0.523 1.425-0.861 2.264-1.015zM234.668 6.056v0l-1.29-0.211c-0.679 2.653-2.245 4.37-4.697 5.152v0c-0.315 0.092-0.617 0.164-0.906 0.217v0c-3.377 0.62-5.868-1.004-7.471-4.871v0c-0.468-1.073-0.842-2.282-1.123-3.627v0l5.809-0.975c3.94-0.655 6.4-1.489 7.38-2.502v0c0.748-0.801 1.013-1.796 0.794-2.983v0c-0.402-2.19-1.832-3.724-4.29-4.601v0c-1.745-0.642-3.646-0.775-5.706-0.397v0c-4.02 0.737-6.591 2.938-7.715 6.601v0c-0.586 1.904-0.679 3.947-0.278 6.131v0c0.733 3.993 2.709 6.691 5.928 8.093v0c1.912 0.815 3.963 1.022 6.152 0.62v0c3.475-0.638 5.802-2.363 6.981-5.175v0c0.174-0.493 0.318-0.983 0.432-1.472z" opacity="1" transform="matrix(1,0,0,1,0,0)" fill="#d94e28" class="wordmark-text-0" data-fill-palette-color="primary" id="text-0"></path></svg></g></svg></g></svg></g></svg></g><g transform="matrix(1,0,0,1,171.6618161313203,0)"><svg viewBox="0 0 52.19636773735939 68.14039096137427" height="68.14039096137427" width="52.19636773735939"><g><svg xmlns="http://www.w3.org/2000/svg" xmlns:xlink="http://www.w3.org/1999/xlink" version="1.1" x="0" y="0" viewBox="16 5 68.817 89.838" enable-background="new 0 0 100 100" xml:space="preserve" height="68.14039096137427" width="52.19636773735939" class="icon-icon-0" data-fill-palette-color="accent" id="icon-0"><path d="M81 9.811V7.782H56.554L23.03 5 22.799 7.782H19V53.562L16 89.71 19 89.959V92.782H53.019L77.788 94.838 77.959 92.782H81V56.125L84.817 10.128zM24.858 7.159L32.371 7.783H24.806zM18.159 87.882L19 77.744V87.951zM79 11.652V90.783H21V9.782H79zM81 11.818L82.659 11.956 81 31.945z" fill="#f9744c" data-fill-palette-color="accent"></path><path d="M48 23.782A1 1 0 0 1 47 24.782H26A1 1 0 0 1 26 22.782H47A1 1 0 0 1 48 23.782" fill="#f9744c" data-fill-palette-color="accent"></path><path d="M48 29.782A1 1 0 0 1 47 30.782H26A1 1 0 0 1 26 28.782H47A1 1 0 0 1 48 29.782" fill="#f9744c" data-fill-palette-color="accent"></path><path d="M48 35.782A1 1 0 0 1 47 36.782H26A1 1 0 0 1 26 34.782H47A1 1 0 0 1 48 35.782" fill="#f9744c" data-fill-palette-color="accent"></path><path d="M75 45.782A1 1 0 0 1 74 46.782H26A1 1 0 1 1 26 44.782H74A1 1 0 0 1 75 45.782" fill="#f9744c" data-fill-palette-color="accent"></path><path d="M75 51.782A1 1 0 0 1 74 52.782H26A1 1 0 1 1 26 50.782H74A1 1 0 0 1 75 51.782" fill="#f9744c" data-fill-palette-color="accent"></path><path d="M75 57.782A1 1 0 0 1 74 58.782H26A1 1 0 1 1 26 56.782H74A1 1 0 0 1 75 57.782" fill="#f9744c" data-fill-palette-color="accent"></path><path d="M75 63.782A1 1 0 0 1 74 64.782H26A1 1 0 1 1 26 62.782H74A1 1 0 0 1 75 63.782" fill="#f9744c" data-fill-palette-color="accent"></path><path d="M75 70.782A1 1 0 0 1 74 71.782H26A1 1 0 1 1 26 69.782H74A1 1 0 0 1 75 70.782" fill="#f9744c" data-fill-palette-color="accent"></path><path d="M75 77.782A1 1 0 0 1 74 78.782H26A1 1 0 1 1 26 76.782H74A1 1 0 0 1 75 77.782" fill="#f9744c" data-fill-palette-color="accent"></path><path d="M55 84.782A1 1 0 0 1 54 85.782H26A1 1 0 1 1 26 83.782H54A1 1 0 0 1 55 84.782" fill="#f9744c" data-fill-palette-color="accent"></path><circle cx="62.996" cy="20.078" r="5.8" fill="#f9744c" data-fill-palette-color="accent"></circle><path d="M71.99 31.643C71.642 27.261 67.734 26.503 62.995 26.503S54.347 27.26 54 31.643V36.783H57.213V32.928S57.213 31.643 57.856 31.643V36.783H68.135V31.643C68.779 31.643 68.779 32.928 68.779 32.928V36.783H72C72.001 34.656 71.999 31.681 71.99 31.643M62.995 35.498L62.005 34.224 62.995 27.788 63.984 34.22z" fill="#f9744c" data-fill-palette-color="accent"></path></svg></g></svg></g><g></g></svg></g><defs></defs></svg><rect width="395.52" height="140.30243971057962" fill="none" stroke="none" visibility="hidden"></rect></g></svg></g></svg>